<svg xmlns="http://www.w3.org/2000/svg" xmlns:xlink="http://www.w3.org/1999/xlink" version="1.1" x="0px" y="0px" viewBox="0 0 68 85" enable-background="new 0 0 68 68" xml:space="preserve"><g><g><g><path d="M33.9951,2C16.3525,2,2,16.3574,2,34.0049C2,51.6475,16.3525,66,33.9951,66C51.6426,66,66,51.6475,66,34.0049     C66,16.3574,51.6426,2,33.9951,2z M63.9745,33.0021h-3.1953c-0.1537-4.1516-1.2533-8.0639-3.0931-11.5282l2.7693-1.5994     C62.5659,23.8107,63.8181,28.2695,63.9745,33.0021z M49.847,8.5457c3.8851,2.4278,7.1756,5.7178,9.6041,9.6024l-2.7655,1.6033     c-2.1452-3.4028-5.0323-6.2901-8.4349-8.4356L49.847,8.5457z M34.9953,4.0254c4.7312,0.1561,9.1887,1.4072,13.1241,3.5161     l-1.5966,2.7707c-3.4642-1.8391-7.3763-2.9382-11.5275-3.0915V4.0254z M32.9953,4.0254v3.1953     c-4.147,0.1532-8.0554,1.2511-11.5167,3.0882L19.882,7.5382C23.8146,5.4313,28.2683,4.1813,32.9953,4.0254z M18.1504,8.5446     l1.5988,2.7684c-3.4018,2.1449-6.2883,5.0318-8.4334,8.4341l-2.7655-1.6034C10.9781,14.2605,14.2673,10.9715,18.1504,8.5446z      M7.5418,19.878l2.7692,1.5994c-1.838,3.4634-2.9368,7.3746-3.0903,11.5248H4.0255C4.1819,28.2709,5.4331,23.8132,7.5418,19.878z      M4.0253,35.0021h3.1953c0.1527,4.1476,1.2502,8.0563,3.0867,11.5182l-2.7682,1.6014     C5.4313,44.1876,4.181,39.7315,4.0253,35.0021z M18.1446,59.4531c-3.8842-2.4281-7.1738-5.7184-9.6011-9.6031l2.7701-1.5962     c2.1445,3.4014,5.0306,6.2874,8.4318,8.4321L18.1446,59.4531z M32.9953,63.9746c-4.7309-0.156-9.1881-1.4075-13.123-3.5168     l1.6041-2.7668c3.4619,1.8372,7.371,2.9352,11.5189,3.0883V63.9746z M9.1953,34.0049c0-13.6797,11.125-24.8096,24.7998-24.8096     c13.6797,0,24.8096,11.1299,24.8096,24.8096c0,13.6748-11.1299,24.7998-24.8096,24.7998     C20.3203,58.8047,9.1953,47.6797,9.1953,34.0049z M34.9953,63.9746v-3.1953c4.1516-0.1532,8.064-1.2521,11.5283-3.0909     l1.6013,2.7682C44.1883,62.5667,39.7287,63.8185,34.9953,63.9746z M49.8524,59.4522l-1.6008-2.7672     c3.4033-2.1454,6.291-5.0327,8.4362-8.4354l2.7701,1.5963C57.0298,53.7319,53.7386,57.0233,49.8524,59.4522z M57.691,46.5215     c1.8375-3.4621,2.9355-7.3713,3.0883-11.5193h3.1953c-0.1556,4.728-1.4056,9.1827-3.5129,13.1159L57.691,46.5215z"/><path d="M51.9805,37.8145c0.0938-0.3066,0.0352-0.6406-0.1582-0.8965l-9.8067-12.98l0.3204-1.604     c0.0918-0.458-0.1455-0.917-0.5703-1.1084c-1.4688-0.6602-2.9121-1.1523-4.3037-1.4688c0.2885-0.5091,1.574-1.8702,0.416-3.6016     c-1.22-1.8265-3.2904-1.0008-5.5547-1.2021c-0.8652,0-1.6572,0.3945-2.1738,1.083c-1.4363,1.9151,0.2522,3.4056,0.2959,3.5596     c-1.498,0.3154-2.9551,0.876-4.3438,1.6748c-0.373,0.2139-0.5664,0.6416-0.4824,1.0635l0.3196,1.5992l-9.763,12.9868     c-0.1924,0.2559-0.25,0.5898-0.1553,0.8965s0.3311,0.5488,0.6348,0.6514c4.7051,1.5908,6.2119,6.1816,6.6416,8.082     c0.3477,1.5322,1.0527,2.8975,2.041,3.9473c2.0527,2.1855,4.502,2.5273,4.6055,2.54c0.043,0.0059,0.0859,0.0088,0.1289,0.0088     c0.2412,0,0.4766-0.0879,0.6602-0.249c0.2158-0.1895,0.3398-0.4629,0.3398-0.751v-10.208c0-0.5527-0.4473-1-1-1s-1,0.4473-1,1     v8.8691c-0.6563-0.2754-1.5049-0.7568-2.2773-1.5791c-0.7441-0.791-1.2793-1.8359-1.5469-3.0195     c-0.4648-2.0547-2.0166-6.7959-6.6924-9.0254l7.9088-10.5201l1.1283,5.6451c0.2217,1.5254,0.9893,2.9277,2.1553,3.9424     c0.9048,0.7983,2.026,1.3024,3.2256,1.4874v5.6971c0,0.5527,0.4473,1,1,1s1-0.4473,1-1v-5.701     c2.7416-0.437,4.9788-2.6118,5.3799-5.3742l1.1381-5.6981l7.9498,10.5233c-4.6738,2.2295-6.2246,6.9697-6.6895,9.0234     c-0.2676,1.1836-0.8027,2.2285-1.5479,3.0195c-0.7715,0.8223-1.6191,1.3027-2.2764,1.5791v-8.8691c0-0.5527-0.4473-1-1-1     s-1,0.4473-1,1v10.208c0,0.2881,0.124,0.5615,0.3398,0.751c0.1836,0.1611,0.4189,0.249,0.6602,0.249     c0.043,0,0.0859-0.0029,0.1289-0.0088c0.1035-0.0127,2.5537-0.3545,4.6055-2.54c0.9883-1.0498,1.6934-2.415,2.041-3.9473     c0.4297-1.9004,1.9365-6.4912,6.6416-8.082C51.6494,38.3652,51.8857,38.1221,51.9805,37.8145z M38.3838,31.9189     c-0.2668,1.8304-1.6622,3.2682-3.4102,3.6782V34.043c0-0.5527-0.4473-1-1-1s-1,0.4473-1,1v1.5592     c-0.7066-0.1603-1.3652-0.4773-1.9072-0.9557c-0.8105-0.7061-1.3418-1.6738-1.5039-2.7793l-1.8379-9.2021     c1.0538-0.5381,2.1242-0.9097,3.2354-1.1312v1.3157c0,0.5527,0.4473,1,1,1s1-0.4473,1-1     c-0.0754-0.6033,0.3603-2.5787-0.8018-4.291l-0.5479-0.8037c-0.0484-0.4161,0.2619-0.8018,0.7129-0.8018     c2.7013,0.155,3.4882-0.289,3.8926,0.3145c0.0586,0.0879,0.1777,0.3125,0.0938,0.5928l-0.4717,0.7197     c-0.5628,0.8757-0.7033,1.8334-0.6826,1.7334c-0.1455,1.1574-0.0454,1.3332-0.0771,2.5361c0,0.5527,0.4473,1,1,1s1-0.4473,1-1     V21.723c1.0155,0.2344,2.0652,0.5714,3.1387,1.0133L38.3838,31.9189z"/></g></g></g><text x="0" y="83" fill="#000000" font-size="5px" font-weight="bold" font-family="'Helvetica Neue', Helvetica, Arial-Unicode, Arial, Sans-serif">Created by Vectors Point</text><text x="0" y="88" fill="#000000" font-size="5px" font-weight="bold" font-family="'Helvetica Neue', Helvetica, Arial-Unicode, Arial, Sans-serif">from the Noun Project</text></svg>